<?xml version="1.0" encoding="UTF-8" standalone="no"?>
<!-- Created with Inkscape (http://www.inkscape.org/) -->

<svg
   xmlns:dc="http://purl.org/dc/elements/1.1/"
   xmlns:cc="http://creativecommons.org/ns#"
   xmlns:rdf="http://www.w3.org/1999/02/22-rdf-syntax-ns#"
   xmlns:svg="http://www.w3.org/2000/svg"
   xmlns="http://www.w3.org/2000/svg"
   xmlns:sodipodi="http://sodipodi.sourceforge.net/DTD/sodipodi-0.dtd"
   xmlns:inkscape="http://www.inkscape.org/namespaces/inkscape"
   id="svg2"
   version="1.1"
   inkscape:version="0.91 r13725"
   xml:space="preserve"
   width="1000"
   height="1000"
   viewBox="0 0 1000 1000"
   sodipodi:docname="logo.svg"><metadata
     id="metadata8"><rdf:RDF><cc:Work
         rdf:about=""><dc:format>image/svg+xml</dc:format><dc:type
           rdf:resource="http://purl.org/dc/dcmitype/StillImage" /><dc:title></dc:title></cc:Work></rdf:RDF></metadata><defs
     id="defs6"><clipPath
       clipPathUnits="userSpaceOnUse"
       id="clipPath16"><path
         d="M 0,800 800,800 800,0 0,0 0,800 Z"
         id="path18"
         inkscape:connector-curvature="0" /></clipPath><clipPath
       clipPathUnits="userSpaceOnUse"
       id="clipPath24"><path
         d="m 0.585937,800.053 800.001063,0 0,-800.0002961 -800.001063,0 0,800.0002961 z"
         id="path26"
         inkscape:connector-curvature="0" /></clipPath><clipPath
       clipPathUnits="userSpaceOnUse"
       id="clipPath152"><path
         d="m 87.6436,729.08 669.7344,0 0,-656.1611 -669.7344,0 0,656.1611 z"
         id="path154"
         inkscape:connector-curvature="0" /></clipPath><clipPath
       clipPathUnits="userSpaceOnUse"
       id="clipPath184"><path
         d="M 0,800 800,800 800,0 0,0 0,800 Z"
         id="path186"
         inkscape:connector-curvature="0" /></clipPath><clipPath
       clipPathUnits="userSpaceOnUse"
       id="clipPath204"><path
         d="M 0,800 800,800 800,0 0,0 0,800 Z"
         id="path206"
         inkscape:connector-curvature="0" /></clipPath><clipPath
       clipPathUnits="userSpaceOnUse"
       id="clipPath234"><path
         d="M 0,800 800,800 800,0 0,0 0,800 Z"
         id="path236"
         inkscape:connector-curvature="0" /></clipPath><clipPath
       clipPathUnits="userSpaceOnUse"
       id="clipPath338"><path
         d="M 0,800 800,800 800,0 0,0 0,800 Z"
         id="path340"
         inkscape:connector-curvature="0" /></clipPath><clipPath
       clipPathUnits="userSpaceOnUse"
       id="clipPath370"><path
         d="M 0,800 800,800 800,0 0,0 0,800 Z"
         id="path372"
         inkscape:connector-curvature="0" /></clipPath><clipPath
       clipPathUnits="userSpaceOnUse"
       id="clipPath424"><path
         d="M 0,800 800,800 800,0 0,0 0,800 Z"
         id="path426"
         inkscape:connector-curvature="0" /></clipPath><clipPath
       clipPathUnits="userSpaceOnUse"
       id="clipPath584"><path
         d="M 0,800 800,800 800,0 0,0 0,800 Z"
         id="path586"
         inkscape:connector-curvature="0" /></clipPath></defs><sodipodi:namedview
     pagecolor="#ffffff"
     bordercolor="#666666"
     borderopacity="1"
     objecttolerance="10"
     gridtolerance="10"
     guidetolerance="10"
     inkscape:pageopacity="0"
     inkscape:pageshadow="2"
     inkscape:window-width="1366"
     inkscape:window-height="705"
     id="namedview4"
     showgrid="false"
     inkscape:zoom="0.48"
     inkscape:cx="467.25954"
     inkscape:cy="537.42604"
     inkscape:window-x="-8"
     inkscape:window-y="-8"
     inkscape:window-maximized="1"
     inkscape:current-layer="g232" /><g
     id="g10"
     inkscape:groupmode="layer"
     inkscape:label="35696-O0KYS6"
     transform="matrix(1.25,0,0,-1.25,0,1000)"><g
       id="g180"
       transform="translate(66.66667,-108.33333)" /><g
       id="g230"
       transform="translate(66.66667,-108.33333)"><g
         id="g232"
         clip-path="url(#clipPath234)"><g
           id="g266"
           transform="matrix(2.0806073,0,0,2.1348107,713.65996,566.60317)"><path
             d="m 0,0 c -1.909,3.351 -4.892,5.88 -8.351,7.27 -0.532,2.114 -1.489,4.14 -2.854,5.953 -6.522,8.664 -18.868,7.978 -20.255,7.872 -6.187,-0.477 -11.457,-3.537 -14.483,-8.31 -3.287,1.586 -7.049,2.344 -10.904,2.047 -1.511,-0.116 -2.995,-0.404 -4.438,-0.834 1.68,2.067 4.28,6.327 2.089,11.061 -3.078,6.647 -12.65,2.046 -12.65,2.046 0,0 4.887,7.292 1.366,12.741 -3.518,5.446 -12.808,0.093 -12.808,0.093 0,0 3.591,8.554 -0.588,12.799 -4.178,4.247 -12.683,-1.87 -12.683,-1.87 0,0 3.194,8.419 -2.536,12.564 -5.727,4.144 -12.242,-3.782 -12.242,-3.782 0,0 1.955,9.197 -4.42,12.026 -6.376,2.83 -11.532,-5.599 -11.532,-5.599 0,0 0.064,9.627 -6.202,11.208 -6.266,1.583 -10.529,-7.294 -10.529,-7.294 0,0 -1.17,9.899 -7.852,10.125 -6.684,0.228 -9.295,-8.811 -9.295,-8.811 0,0 -2.358,9.779 -9.298,8.811 -6.936,-0.969 -7.847,-10.132 -7.847,-10.132 0,0 -3.902,8.324 -10.534,7.284 -6.636,-1.04 -6.2,-11.207 -6.2,-11.207 0,0 -4.949,8.105 -11.527,5.594 -6.578,-2.509 -4.42,-12.026 -4.42,-12.026 0,0 -6.453,7.502 -12.245,3.768 -5.793,-3.736 -2.53,-12.561 -2.53,-12.561 0,0 -6.857,6.749 -12.675,1.861 -5.818,-4.886 -0.581,-12.804 -0.581,-12.804 0,0 -7.864,5.699 -12.819,-0.094 -4.955,-5.792 1.381,-12.738 1.381,-12.738 0,0 -8.34,4.379 -12.654,-2.055 -4.314,-6.436 3.312,-12.38 3.312,-12.38 0,0 -9.717,2.06 -12.188,-3.96 -2.474,-6.019 5.162,-11.733 5.162,-11.733 0,0 -9.853,0.193 -11.441,-5.769 -1.104,-4.146 2.657,-7.751 5.051,-9.563 -19.429,-8.281 -38.487,-24.679 -49.862,-43.265 -3.71,-6.064 -15.087,-27.022 -5.695,-42.214 0.807,-1.3 1.664,-2.276 2.336,-2.975 5.041,-6.841 13.581,-10.429 23.315,-9.679 1.301,0.1 2.605,0.277 3.891,0.523 1.19,-5.684 3.163,-11.096 6.426,-15.867 3.353,-4.894 8.956,-7.539 14.992,-7.074 5.962,0.46 11.821,4.266 11.909,4.325 1.756,1.195 3.173,2.599 4.318,4.12 0.607,0.014 1.221,0.044 1.845,0.092 4.545,0.351 8.905,1.606 13.005,3.716 0.303,-0.696 0.75,-1.324 1.392,-1.839 4.528,-3.627 12.787,0.891 12.787,0.891 0,0 -4.46,-8.278 1.563,-12.715 6.022,-4.437 12.496,2.824 12.496,2.824 0,0 -2.097,-10.084 3.497,-12.331 5.593,-2.247 11.914,4.706 11.914,4.706 0,0 -0.41,-10.054 5.328,-11.648 5.74,-1.593 11.067,6.472 11.067,6.472 0,0 0.7,-9.712 7.043,-10.71 6.342,-0.999 9.949,8.078 9.949,8.078 0,0 1.74,-9.985 8.596,-9.495 6.857,0.491 8.598,9.507 8.598,9.507 0,0 4.091,-8.871 9.943,-8.079 5.85,0.796 7.043,10.701 7.043,10.701 0,0 5.111,-8.991 11.072,-6.459 5.961,2.531 5.317,11.661 5.317,11.661 0,0 6.61,-7.587 11.924,-4.7 5.314,2.887 3.479,12.326 3.479,12.326 0,0 7.209,-6.784 12.504,-2.825 5.295,3.958 1.561,12.721 1.561,12.721 0,0 7.89,-5.124 12.78,-0.877 4.891,4.247 -0.399,12.804 -0.399,12.804 0,0 8.993,-4.072 12.769,1.078 3.775,5.15 -2.348,12.601 -2.348,12.601 0,0 9.613,-3.633 12.452,3.009 1.433,3.354 0.338,6.403 -1.099,8.601 9.876,2.317 18.439,10.7 24.384,24.05 1.484,3.332 2.553,7.303 3.685,11.505 0.948,3.522 2.712,10.076 3.956,11.926 1.095,1.53 4.523,4.746 7.278,7.331 5.039,4.726 10.751,10.085 14.977,16.106 C 2.966,-13.499 3.437,-6.036 0,0"
             style="fill:#776765;fill-opacity:1;fill-rule:nonzero;stroke:none"
             id="path268"
             inkscape:connector-curvature="0" /></g><g
           id="g270"
           transform="matrix(2.0806073,0,0,2.1348107,343.06177,695.36108)"><path
             d="M 0,0 C -0.775,-0.06 -1.48,0.484 -1.606,1.267 -1.739,2.09 -1.179,2.865 -0.354,2.999 1.336,3.271 3.051,3.506 4.742,3.695 5.562,3.791 6.32,3.191 6.412,2.361 6.506,1.533 5.908,0.785 5.079,0.692 3.436,0.508 1.769,0.28 0.126,0.015 0.084,0.008 0.041,0.003 0,0 M 22.251,1.212 C 22.186,1.207 22.121,1.206 22.054,1.21 20.4,1.294 18.719,1.341 17.057,1.346 16.224,1.349 15.548,2.027 15.552,2.862 15.553,3.696 16.244,4.358 17.067,4.367 18.776,4.362 20.506,4.315 22.21,4.227 23.043,4.185 23.685,3.475 23.641,2.641 23.602,1.874 22.996,1.269 22.251,1.212 M -16.724,-4.14 c -0.672,-0.051 -1.321,0.355 -1.547,1.024 -0.268,0.791 0.157,1.648 0.949,1.915 1.622,0.549 3.276,1.061 4.916,1.527 0.799,0.22 1.637,-0.239 1.865,-1.042 0.228,-0.803 -0.239,-1.638 -1.042,-1.866 -1.591,-0.452 -3.195,-0.949 -4.773,-1.483 -0.121,-0.042 -0.246,-0.065 -0.368,-0.075 m 56.047,3.042 c -0.145,-0.01 -0.295,-0.002 -0.444,0.031 -1.618,0.359 -3.27,0.681 -4.905,0.959 -0.824,0.141 -1.376,0.921 -1.237,1.744 0.141,0.823 0.92,1.375 1.744,1.236 1.684,-0.286 3.384,-0.619 5.051,-0.987 0.816,-0.182 1.329,-0.989 1.15,-1.802 -0.149,-0.666 -0.713,-1.131 -1.359,-1.181 m -71.844,-9.888 c -0.58,-0.045 -1.158,0.248 -1.45,0.793 -0.393,0.735 -0.117,1.651 0.619,2.045 1.507,0.808 3.049,1.587 4.584,2.315 0.752,0.357 1.655,0.037 2.012,-0.717 0.359,-0.755 0.037,-1.654 -0.717,-2.014 -1.49,-0.707 -2.987,-1.463 -4.453,-2.249 -0.189,-0.101 -0.392,-0.158 -0.595,-0.173 m 88.311,4.777 c -0.227,-0.018 -0.459,0.015 -0.682,0.105 -1.547,0.626 -3.126,1.219 -4.686,1.763 -0.788,0.275 -1.205,1.136 -0.931,1.924 0.275,0.788 1.136,1.205 1.924,0.93 1.606,-0.559 3.231,-1.17 4.825,-1.815 0.774,-0.311 1.149,-1.192 0.836,-1.967 -0.222,-0.549 -0.732,-0.898 -1.286,-0.94 M -46.971,-20.35 c -0.49,-0.038 -0.99,0.164 -1.313,0.582 -0.51,0.661 -0.388,1.611 0.271,2.12 1.35,1.04 2.743,2.065 4.145,3.042 0.685,0.48 1.626,0.31 2.103,-0.373 0.479,-0.685 0.311,-1.628 -0.373,-2.104 -1.362,-0.95 -2.716,-1.945 -4.026,-2.957 -0.242,-0.187 -0.522,-0.288 -0.807,-0.31 m 118.154,6.379 c -0.306,-0.023 -0.623,0.046 -0.905,0.217 -1.421,0.871 -2.879,1.715 -4.329,2.512 -0.732,0.399 -1,1.318 -0.599,2.05 0.402,0.732 1.322,1 2.05,0.598 1.495,-0.817 2.993,-1.686 4.457,-2.581 0.71,-0.435 0.935,-1.365 0.5,-2.078 -0.264,-0.43 -0.708,-0.682 -1.174,-0.718 M -59.693,-31.967 c -0.407,-0.031 -0.823,0.101 -1.145,0.401 -0.61,0.567 -0.646,1.524 -0.078,2.135 1.162,1.25 2.369,2.49 3.591,3.683 0.596,0.582 1.554,0.573 2.137,-0.025 0.583,-0.596 0.574,-1.552 -0.024,-2.135 -1.187,-1.16 -2.361,-2.365 -3.49,-3.581 -0.269,-0.289 -0.625,-0.45 -0.991,-0.478 m 144.782,7.817 c -0.388,-0.031 -0.787,0.088 -1.106,0.365 -1.257,1.088 -2.554,2.16 -3.856,3.181 -0.657,0.516 -0.77,1.466 -0.256,2.123 0.518,0.657 1.467,0.767 2.122,0.254 1.34,-1.051 2.676,-2.153 3.97,-3.274 0.632,-0.547 0.698,-1.501 0.152,-2.132 -0.27,-0.313 -0.643,-0.488 -1.026,-0.517 M -70.348,-45.514 c -0.324,-0.024 -0.657,0.054 -0.948,0.246 -0.696,0.46 -0.887,1.398 -0.428,2.094 0.94,1.421 1.929,2.843 2.943,4.225 0.492,0.674 1.439,0.82 2.112,0.326 0.673,-0.493 0.819,-1.44 0.326,-2.11 -0.985,-1.346 -1.947,-2.727 -2.858,-4.107 -0.269,-0.404 -0.697,-0.639 -1.147,-0.674 m 167.486,9.05 c -0.473,-0.036 -0.954,0.15 -1.28,0.543 -1.057,1.275 -2.162,2.543 -3.282,3.768 -0.563,0.615 -0.521,1.571 0.095,2.134 0.616,0.563 1.572,0.522 2.136,-0.094 1.152,-1.261 2.29,-2.567 3.377,-3.88 0.533,-0.642 0.443,-1.595 -0.2,-2.126 -0.25,-0.208 -0.546,-0.321 -0.846,-0.345 M -78.638,-60.628 c -0.242,-0.02 -0.491,0.02 -0.729,0.125 -0.763,0.342 -1.106,1.233 -0.766,1.996 0.698,1.566 1.442,3.131 2.21,4.654 0.378,0.747 1.287,1.042 2.031,0.668 0.746,-0.377 1.043,-1.286 0.668,-2.03 -0.749,-1.479 -1.471,-3.001 -2.148,-4.521 -0.234,-0.526 -0.73,-0.851 -1.266,-0.892 m 185.633,10.049 c -0.559,-0.043 -1.121,0.228 -1.423,0.747 -0.835,1.436 -1.715,2.867 -2.614,4.251 -0.454,0.701 -0.255,1.636 0.445,2.091 0.699,0.452 1.636,0.254 2.09,-0.445 0.925,-1.425 1.831,-2.899 2.693,-4.378 0.418,-0.721 0.174,-1.646 -0.548,-2.065 -0.202,-0.118 -0.422,-0.185 -0.643,-0.201 M -84.319,-76.911 c -0.162,-0.012 -0.327,0.001 -0.494,0.044 -0.808,0.208 -1.294,1.033 -1.084,1.841 0.423,1.642 0.897,3.311 1.409,4.96 0.247,0.797 1.098,1.24 1.89,0.995 0.798,-0.246 1.244,-1.093 0.996,-1.89 -0.497,-1.604 -0.958,-3.226 -1.371,-4.82 -0.165,-0.643 -0.719,-1.081 -1.346,-1.13 m 198.711,10.771 c -0.653,-0.05 -1.288,0.331 -1.53,0.975 -0.58,1.541 -1.21,3.099 -1.877,4.632 -0.332,0.765 0.02,1.655 0.785,1.987 0.764,0.333 1.656,-0.019 1.989,-0.784 0.684,-1.578 1.335,-3.183 1.931,-4.77 0.294,-0.782 -0.1,-1.653 -0.881,-1.946 -0.137,-0.053 -0.278,-0.082 -0.417,-0.094 m -4.498,-83.927 c -0.267,-0.021 -0.542,0.029 -0.798,0.158 -0.744,0.377 -1.042,1.286 -0.666,2.03 0.747,1.476 1.47,2.995 2.152,4.521 0.341,0.76 1.235,1.101 1.996,0.762 0.762,-0.339 1.105,-1.233 0.764,-1.996 -0.702,-1.568 -1.447,-3.134 -2.216,-4.651 -0.248,-0.49 -0.725,-0.785 -1.232,-0.824 m -170.286,-23.216 c -0.45,-0.035 -0.908,0.13 -1.234,0.487 -1.144,1.254 -2.279,2.561 -3.374,3.881 -0.532,0.643 -0.443,1.596 0.199,2.129 0.643,0.531 1.595,0.442 2.129,-0.201 1.064,-1.285 2.167,-2.554 3.279,-3.772 0.561,-0.617 0.517,-1.572 -0.098,-2.135 -0.261,-0.235 -0.578,-0.365 -0.901,-0.389 m 161.256,8.533 c -0.348,-0.026 -0.706,0.066 -1.01,0.29 -0.672,0.494 -0.816,1.439 -0.323,2.112 0.979,1.33 1.942,2.71 2.865,4.101 0.461,0.696 1.399,0.886 2.093,0.424 0.697,-0.459 0.887,-1.397 0.425,-2.093 -0.948,-1.433 -1.94,-2.853 -2.947,-4.222 -0.272,-0.37 -0.679,-0.579 -1.103,-0.612 m -148.639,-20.267 c -0.366,-0.027 -0.742,0.076 -1.052,0.321 -1.345,1.058 -2.679,2.163 -3.965,3.279 -0.631,0.547 -0.698,1.5 -0.15,2.131 0.546,0.631 1.502,0.697 2.132,0.151 1.249,-1.086 2.545,-2.158 3.853,-3.187 0.655,-0.516 0.769,-1.467 0.252,-2.122 -0.273,-0.346 -0.665,-0.541 -1.07,-0.573 m 137.336,7.266 c -0.432,-0.033 -0.873,0.119 -1.201,0.452 -0.582,0.598 -0.57,1.554 0.029,2.137 1.18,1.151 2.356,2.354 3.493,3.575 0.571,0.61 1.525,0.645 2.136,0.076 0.611,-0.568 0.645,-1.523 0.075,-2.136 -1.169,-1.255 -2.378,-2.495 -3.596,-3.679 -0.264,-0.258 -0.596,-0.399 -0.936,-0.425 m -122.963,-16.776 c -0.283,-0.022 -0.575,0.035 -0.842,0.182 -1.503,0.825 -3.001,1.695 -4.454,2.588 -0.711,0.436 -0.933,1.366 -0.497,2.077 0.436,0.712 1.369,0.937 2.078,0.497 1.411,-0.865 2.868,-1.712 4.326,-2.512 0.733,-0.403 1,-1.322 0.598,-2.052 -0.255,-0.465 -0.717,-0.742 -1.209,-0.78 m 109.687,5.807 c -0.516,-0.04 -1.041,0.187 -1.358,0.644 -0.476,0.684 -0.306,1.627 0.378,2.103 1.355,0.942 2.71,1.935 4.027,2.951 0.662,0.508 1.61,0.387 2.119,-0.274 0.511,-0.662 0.387,-1.61 -0.273,-2.12 -1.357,-1.045 -2.752,-2.067 -4.147,-3.038 -0.229,-0.158 -0.486,-0.246 -0.746,-0.266 m -93.938,-12.829 c -0.201,-0.016 -0.41,0.009 -0.614,0.08 -1.615,0.566 -3.238,1.177 -4.823,1.82 -0.774,0.314 -1.146,1.194 -0.833,1.967 0.314,0.774 1.196,1.149 1.967,0.833 1.541,-0.624 3.118,-1.218 4.687,-1.766 0.788,-0.276 1.203,-1.138 0.928,-1.926 -0.205,-0.584 -0.732,-0.964 -1.312,-1.008 m 79.045,4.199 c -0.607,-0.047 -1.207,0.278 -1.483,0.861 -0.357,0.753 -0.035,1.655 0.72,2.012 1.497,0.71 2.996,1.464 4.454,2.244 0.737,0.395 1.651,0.115 2.044,-0.62 0.394,-0.735 0.117,-1.652 -0.62,-2.045 -1.5,-0.802 -3.042,-1.58 -4.585,-2.311 -0.173,-0.081 -0.352,-0.127 -0.53,-0.141 m -62.358,-8.513 c -0.122,-0.01 -0.247,-0.004 -0.372,0.016 -1.674,0.287 -3.373,0.621 -5.051,0.993 -0.814,0.181 -1.328,0.988 -1.147,1.803 0.182,0.816 0.987,1.327 1.803,1.149 1.629,-0.363 3.28,-0.687 4.905,-0.965 0.823,-0.143 1.376,-0.923 1.234,-1.745 -0.119,-0.698 -0.698,-1.2 -1.372,-1.251 m 46.223,2.461 c -0.703,-0.055 -1.369,0.391 -1.569,1.096 -0.227,0.803 0.241,1.639 1.043,1.865 1.589,0.448 3.197,0.946 4.776,1.477 0.794,0.265 1.647,-0.159 1.914,-0.95 0.266,-0.791 -0.159,-1.648 -0.949,-1.914 -1.628,-0.548 -3.284,-1.06 -4.918,-1.522 -0.099,-0.026 -0.198,-0.045 -0.297,-0.052 m -29.056,-3.955 c -0.042,-0.003 -0.083,-0.004 -0.125,-0.004 -1.703,0.006 -3.433,0.055 -5.142,0.145 -0.834,0.042 -1.474,0.753 -1.43,1.586 0.043,0.835 0.757,1.478 1.586,1.431 1.663,-0.086 3.345,-0.134 5.001,-0.141 0.833,-0.003 1.507,-0.683 1.503,-1.518 -0.003,-0.792 -0.616,-1.439 -1.393,-1.499 m 12.149,0.651 c -0.809,-0.063 -1.527,0.528 -1.618,1.34 -0.092,0.829 0.505,1.576 1.335,1.669 1.651,0.183 3.318,0.41 4.954,0.672 0.832,0.126 1.6,-0.429 1.732,-1.252 0.131,-0.825 -0.429,-1.599 -1.253,-1.732 -1.685,-0.269 -3.399,-0.503 -5.1,-0.691 -0.015,-0.003 -0.033,-0.004 -0.05,-0.006"
             style="fill:#ffdcae;fill-opacity:1;fill-rule:nonzero;stroke:none"
             id="path272"
             inkscape:connector-curvature="0" /></g><g
           id="g274"
           transform="matrix(2.0806073,0,0,2.1348107,469.56852,658.04566)"><path
             d="m 0,0 c 2.511,-32.589 -21.874,-61.043 -54.462,-63.554 -32.589,-2.51 -61.043,21.874 -63.554,54.463 -2.509,32.589 21.874,61.043 54.463,63.553 C -30.965,56.973 -2.51,32.589 0,0"
             style="fill:#776765;fill-opacity:1;fill-rule:nonzero;stroke:none"
             id="path276"
             inkscape:connector-curvature="0" /></g><g
           id="g278"
           transform="matrix(2.0806073,0,0,2.1348107,273.02416,661.29356)"><path
             d="m 0,0 4.761,-20.682 c 1.721,-0.134 7.912,-0.42 21.7,0.863 15.001,1.394 27.191,4.346 29.567,4.95 0.296,1.383 1.22,6.412 1.029,15.028 -0.226,10.216 -3.513,20.729 -3.545,20.834 l -0.129,0.402 0.296,0.299 c 0.031,0.03 2.98,3.065 1.669,5.666 -0.354,0.708 -0.859,1.158 -1.543,1.378 -1.31,0.426 -2.826,-0.149 -2.841,-0.154 l -1.5,-0.593 0.485,1.494 c 0.038,0.122 0.913,3.075 -2.249,5.339 -0.528,0.378 -1.078,0.662 -1.635,0.843 -2.444,0.792 -4.39,-0.545 -4.471,-0.602 l -1.008,-0.708 -0.188,1.207 c -0.018,0.112 -0.491,2.816 -3.432,3.768 -0.251,0.083 -0.517,0.15 -0.79,0.202 -1.535,0.288 -2.842,0.005 -3.884,-0.841 -0.771,-0.625 -1.107,-1.333 -1.112,-1.34 l -0.509,-1.115 -0.773,0.998 c -0.015,0.021 -1.591,2.015 -3.968,2.785 -0.842,0.274 -1.69,0.36 -2.528,0.262 -3.546,-0.422 -3.704,-5.703 -3.708,-5.758 L 19.692,34.35 19.606,34.196 0,0 Z m 3.534,-21.987 -5.117,22.24 19.788,34.522 c 0.027,0.467 0.141,1.743 0.619,3.069 0.828,2.294 2.334,3.633 4.357,3.872 1.061,0.128 2.134,0.016 3.192,-0.327 1.821,-0.589 3.213,-1.739 3.999,-2.519 0.997,1.269 3,2.656 6.054,2.081 0.339,-0.062 0.67,-0.147 0.983,-0.25 2.63,-0.851 3.741,-2.776 4.188,-3.963 1.028,0.46 2.825,0.974 4.91,0.298 0.712,-0.232 1.407,-0.588 2.066,-1.06 2.499,-1.791 3.08,-4.122 3.011,-5.733 0.735,0.125 1.713,0.175 2.664,-0.136 1.084,-0.351 1.907,-1.074 2.447,-2.142 1.488,-2.961 -0.794,-6.003 -1.637,-6.972 0.603,-2.014 3.29,-11.538 3.497,-20.842 0.232,-10.422 -1.109,-15.592 -1.164,-15.808 l -0.105,-0.391 -0.405,-0.107 C 56.747,-16.192 43.441,-19.697 26.644,-21.258 9.82,-22.821 4.287,-22.094 4.062,-22.061 l -0.528,0.074 z"
             style="fill:#ffdcae;fill-opacity:1;fill-rule:nonzero;stroke:none"
             id="path280"
             inkscape:connector-curvature="0" /></g><g
           id="g282"
           transform="matrix(2.0806073,0,0,2.1348107,275.06628,661.33946)"><path
             d="m 0,0 c 1.107,-0.543 2.7,-1.276 4.195,-1.761 2.338,-0.757 3.065,-0.466 3.233,-0.358 0.621,0.397 1.226,1.436 1.813,2.439 1.079,1.849 2.302,3.942 4.404,3.262 0.233,-0.077 0.473,-0.187 0.709,-0.337 1.176,-0.732 2.109,-1.206 2.851,-1.445 1.353,-0.441 1.853,-0.047 2.19,0.44 0.893,1.295 3.26,4.731 7.101,3.485 0.503,-0.16 1.017,-0.401 1.527,-0.711 0.594,-0.366 1.231,-0.658 1.889,-0.872 3.025,-0.98 6.842,-0.292 8.082,3.531 1.211,3.741 2.357,7.276 6.061,6.076 0.329,-0.106 0.67,-0.249 1.042,-0.43 0.177,-0.086 0.36,-0.162 0.538,-0.217 2.615,-0.846 4.657,1.856 5.069,3.126 0.293,0.915 0.859,2.493 1.281,3.671 L 0,0 Z m 3.754,-3.13 -10e-4,0 c -2.781,0.902 -5.761,2.542 -5.887,2.613 -0.25,0.14 -0.401,0.404 -0.387,0.678 0.012,0.278 0.191,0.516 0.458,0.616 l 55.016,21.062 c 0.273,0.104 0.588,0.04 0.805,-0.158 0.215,-0.203 0.291,-0.503 0.194,-0.771 -0.013,-0.036 -1.319,-3.611 -1.816,-5.146 -0.622,-1.918 -3.382,-5.184 -6.946,-4.03 -0.247,0.082 -0.498,0.182 -0.741,0.301 -0.301,0.146 -0.585,0.264 -0.839,0.346 C 41.762,12.979 40.979,12.012 39.423,7.209 37.95,2.659 33.3,1.534 29.468,2.774 28.693,3.025 27.945,3.371 27.245,3.797 26.839,4.045 26.438,4.233 26.054,4.358 23.621,5.147 21.956,3.314 20.649,1.418 19.81,0.2 18.502,-0.133 16.76,0.431 15.884,0.715 14.868,1.226 13.565,2.038 13.437,2.117 13.315,2.177 13.202,2.213 12.329,2.496 11.556,1.303 10.551,-0.413 9.851,-1.613 9.188,-2.749 8.279,-3.328 7.395,-3.893 5.916,-3.829 3.754,-3.13"
             style="fill:#ffdcae;fill-opacity:1;fill-rule:nonzero;stroke:none"
             id="path284"
             inkscape:connector-curvature="0" /></g><g
           id="g286"
           transform="matrix(2.0806073,0,0,2.1348107,275.49301,643.22282)"><path
             d="m 0,0 56.055,15.635 c 0,0 0.436,-2.795 0.51,-5.57 0.074,-2.776 0.08,-4.302 0.08,-4.302 L 1.005,-5.91 0,0 Z"
             style="fill:#ffdcae;fill-opacity:1;fill-rule:nonzero;stroke:none"
             id="path288"
             inkscape:connector-curvature="0" /></g><g
           id="g290"
           transform="matrix(2.0806073,0,0,2.1348107,384.63751,705.58683)"><path
             d="m 0,0 c -0.058,0.066 -5.813,6.939 -16.386,10.362 -8.507,2.755 -15.633,2.992 -18.215,2.73 l -0.197,1.438 c 0.319,0.033 7.886,0.754 18.857,-2.799 C -4.911,8.158 0.922,1.175 1.165,0.879 L 0,0 Z"
             style="fill:#ffdcae;fill-opacity:1;fill-rule:nonzero;stroke:none"
             id="path292"
             inkscape:connector-curvature="0" /></g><g
           id="g294"
           transform="matrix(2.0806073,0,0,2.1348107,317.5115,713.26297)"><path
             d="m 0,0 c 0.122,-0.053 0.337,-0.14 0.621,-0.231 l 0.001,-0.001 c 0.911,-0.295 2.372,-0.597 4.158,-0.359 1.499,0.2 2.33,1.38 2.584,2.33 C 7.613,2.66 7.414,3.54 6.859,3.981 6.736,4.074 6.609,4.144 6.467,4.19 5.302,4.567 3.482,3.31 2.939,2.839 2.635,2.576 2.165,2.606 1.884,2.904 c 0,0 -0.291,0.292 -0.697,0.423 C 0.685,3.489 0.212,3.332 -0.269,2.848 -1.297,1.815 -0.321,0.407 0,0 m 0.179,-1.601 0,10e-4 c -0.603,0.197 -0.953,0.373 -0.991,0.393 -0.083,0.042 -0.157,0.1 -0.216,0.166 -0.86,0.948 -2.033,3.196 -0.337,4.903 1.179,1.187 2.383,1.032 2.995,0.834 0.308,-0.1 0.575,-0.242 0.789,-0.38 0.894,0.652 2.79,1.792 4.492,1.243 C 7.228,5.456 7.522,5.297 7.787,5.09 8.826,4.271 9.219,2.834 8.817,1.341 8.329,-0.459 6.842,-1.779 5.023,-2.023 2.949,-2.299 1.244,-1.946 0.179,-1.601"
             style="fill:#ffdcae;fill-opacity:1;fill-rule:nonzero;stroke:none"
             id="path296"
             inkscape:connector-curvature="0" /></g><g
           id="g298"
           transform="matrix(2.0806073,0,0,2.1348107,321.00817,720.47223)"><path
             d="M 0,0 C -0.002,0.072 -0.06,1.767 0.172,2.973 0.445,4.4 1.604,5.128 1.656,5.159 L 2.486,3.935 2.07,4.547 2.488,3.938 C 2.484,3.932 1.804,3.488 1.646,2.675 1.444,1.623 1.499,0.028 1.498,0.011 L 0,0 Z"
             style="fill:#ffdcae;fill-opacity:1;fill-rule:nonzero;stroke:none"
             id="path300"
             inkscape:connector-curvature="0" /></g><g
           id="g302"
           transform="matrix(2.0806073,0,0,2.1348107,315.22762,698.45698)"><path
             d="m 0,0 c -0.209,0.07 -0.418,0.154 -0.63,0.263 -2.179,1.103 -2.589,2.8 -2.472,3.916 -0.545,0.393 -1.069,1.153 -0.982,2.453 0.04,0.608 0.373,1.682 2.132,2.056 0.846,0.181 1.668,0.115 1.7,0.113 L -0.343,7.359 c -0.008,0 -0.648,0.049 -1.276,-0.087 C -2.549,7.065 -2.576,6.654 -2.589,6.501 -2.655,5.519 -2.226,5.304 -2.105,5.264 -1.883,5.232 -1.714,5.111 -1.594,4.928 -1.471,4.738 -1.473,4.515 -1.545,4.308 -1.601,4.142 -2.046,2.593 0.038,1.538 2.154,0.468 3.711,2.894 3.777,2.999 3.967,3.302 4.374,3.447 4.719,3.3 5.059,3.153 5.251,2.82 5.161,2.477 5.161,2.431 5.169,2.292 5.303,2.152 5.449,2.001 5.939,1.644 7.393,1.646 c 2.604,0.005 2.771,1.945 2.777,2.027 0.016,0.244 0.163,0.46 0.388,0.576 0.222,0.109 0.494,0.103 0.718,-0.019 0.002,0 0.257,-0.125 0.502,-0.023 0.283,0.114 0.535,0.506 0.708,1.101 0.088,0.3 0.055,0.559 -0.106,0.81 -0.549,0.868 -2.299,1.399 -2.925,1.53 L 9.733,9.06 C 10.03,8.997 12.658,8.414 13.654,6.852 14.033,6.247 14.129,5.568 13.929,4.881 13.62,3.819 13.087,3.14 12.353,2.858 12.045,2.74 11.75,2.71 11.489,2.725 11.087,1.585 9.945,0.207 7.434,0.2 5.92,0.198 4.836,0.53 4.21,1.188 3.24,0.254 1.741,-0.562 0,0"
             style="fill:#ffdcae;fill-opacity:1;fill-rule:nonzero;stroke:none"
             id="path304"
             inkscape:connector-curvature="0" /></g><g
           id="g306"
           transform="matrix(2.0806073,0,0,2.1348107,88.227745,371.65695)"><path
             d="m 0,0 c -0.068,-0.04 -0.196,-0.188 -0.382,-0.44 -0.607,-7.972 0.488,-13.464 3.089,-16.519 1.08,-1.27 2.477,-2.168 4.188,-2.703 0.39,-0.119 0.812,-0.044 1.266,0.228 2.072,1.24 4.258,5.767 6.777,13.584 -0.213,0.047 -0.321,0.071 -0.535,0.118 C 6.52,-0.866 1.613,0.958 0,0 M 69.573,31.03 C 70.837,29.156 71.431,27.139 71.38,24.987 71.405,20.204 68.771,15.133 63.687,9.657 58.601,4.181 52.553,-0.251 45.479,-3.757 37.063,-8.324 26.928,-10.527 17.676,-7.25 14.145,-15.261 11.094,-20.122 8.259,-21.826 7.743,-22.137 7.235,-22.337 6.731,-22.43 c -2.562,-0.409 -4.892,0.616 -7.025,3.094 -2.133,2.478 -3.361,6.384 -3.602,11.746 -0.243,5.361 0.474,9.041 2.131,11.021 0.81,0.835 1.486,1.412 2.031,1.732 1.968,1.156 4.454,0.895 7.399,-0.802 3.535,-2.039 5.286,-3.073 8.756,-5.171 0.744,2.585 1.489,6.456 2.28,11.618 0.868,5.481 1.324,8.222 2.28,13.704 2.241,9.982 3.888,20.34 9.804,28.891 1.079,0.99 2.337,1.821 3.776,2.492 1.438,0.669 2.792,1.021 4.053,1.054 1.26,0.034 2.125,-0.254 2.588,-0.856 C 41.898,55.189 41.2,54.169 39.129,53.014 37.523,51.125 35.132,46.647 32.136,39.558 29.139,32.468 27.597,28.077 27.308,26.418 25.395,16.516 23.477,6.862 19.721,-2.543 c 8.8,-3.591 17.104,-3.341 25.434,0.776 5.053,2.498 9.287,6.075 12.761,10.795 3.472,4.719 5.364,9.37 5.556,14.008 0.129,1.997 -0.44,3.929 -1.727,5.784 -1.287,1.855 -3.563,3.169 -6.839,3.904 -3.273,0.735 -7.082,0.944 -10.474,0.058 -1.495,-0.391 -4.062,-1.402 -7.453,-2.663 -3.392,-1.262 -5.326,-1.595 -5.829,-0.953 -0.193,0.247 -0.225,0.54 -0.089,0.881 0.324,1.12 1.174,2.02 2.553,2.692 0.797,0.389 1.657,0.668 2.575,0.837 0.917,0.167 1.633,0.306 2.145,0.414 0.513,0.108 1.119,0.225 1.817,0.352 1.681,0.657 3.11,1.254 4.285,1.796 4.84,2.237 8.891,4.735 12.154,7.55 4.161,3.606 6.049,7.089 5.501,10.449 -0.354,2.173 -1.069,3.998 -2.108,5.44 -2.56,3.551 -7.122,5.111 -13.584,4.596 C 40.785,63.725 34.046,61.741 26.394,58.068 15.867,53.081 6.003,46.302 -1.562,37.371 -4.929,33.39 -7.381,28.829 -8.928,23.73 c -1.548,-5.102 -1.384,-8.618 0.375,-10.562 1.214,-1.344 2.727,-2.151 4.542,-2.43 0.743,-0.131 1.876,-0.173 3.398,-0.136 0.465,0.059 0.319,-0.131 -0.434,-0.571 -4.823,-1.828 -8.646,-1.19 -11.558,1.981 -2.912,3.171 -3.306,7.614 -0.988,13.343 1.736,4.242 4.344,8.359 7.852,12.314 8.454,9.39 19.161,16.574 30.521,21.982 9.342,4.501 17.703,6.932 24.704,7.569 8.086,0.735 13.724,-1.028 16.691,-5.23 1.173,-1.661 1.799,-3.614 2.048,-5.664 0.445,-3.674 -1.978,-7.775 -7.44,-12.154 -4.106,-3.274 -8.923,-6.183 -14.456,-8.787 4.436,1.832 8.929,2.35 13.391,1.555 4.463,-0.795 7.749,-2.786 9.855,-5.91"
             style="fill:#fdd5c7;fill-opacity:1;fill-rule:nonzero;stroke:none"
             id="path308"
             inkscape:connector-curvature="0" /></g><g
           id="g310"
           transform="matrix(2.0806073,0,0,2.1348107,266.46193,422.78717)"><path
             d="m 0,0 c 1.197,-1.911 2.695,-2.519 4.518,-1.829 4.23,1.598 7.947,7.114 11.384,16.582 1.965,6.389 2.979,9.58 5.066,15.951 -1.08,0.558 -2.321,0.608 -3.719,0.143 C 12.513,29.274 7.812,24.563 3.383,16.725 -1.046,8.886 -2.063,3.291 0,0 m 21.695,31.817 c 0.596,0.309 0.894,0.463 1.491,0.771 0.859,0.275 1.826,0.29 2.899,0.043 1.071,-0.247 1.687,-0.509 1.847,-0.783 0.16,-0.275 -0.735,-3.668 -2.581,-10.196 -1.847,-6.528 -2.149,-10.778 -1.02,-12.743 0.093,-0.163 0.224,-0.316 0.394,-0.454 1.094,-1.133 2.27,-1.491 3.545,-1.079 3.897,1.261 8.365,8.238 13.895,20.876 0.112,0.288 0.324,0.478 0.638,0.567 0.312,0.089 0.584,-0.075 0.812,-0.493 0.228,-0.417 0.172,-1.059 -0.165,-1.927 C 38.659,14.051 33.955,7.077 28.95,5.458 28.277,5.241 27.593,5.114 26.907,5.085 23.112,4.926 20.431,6.171 18.87,8.829 18.33,9.751 17.936,10.723 17.691,11.749 16.05,8.841 15.24,7.384 13.643,4.464 10.943,0.106 8.672,-2.44 6.743,-3.161 4.814,-3.883 2.705,-4.129 0.403,-3.9 c -2.619,0.302 -4.484,1.313 -5.598,3.054 -2.462,3.85 -1.775,9.944 2.421,18.23 4.196,8.286 9.7,13.601 16.315,15.838 2.569,0.868 4.671,0.809 6.286,-0.16 0.497,-0.359 0.913,-0.662 1.248,-0.91 0.336,-0.248 0.542,-0.36 0.62,-0.335"
             style="fill:#fdd5c7;fill-opacity:1;fill-rule:nonzero;stroke:none"
             id="path312"
             inkscape:connector-curvature="0" /></g><g
           id="g314"
           transform="matrix(2.0806073,0,0,2.1348107,418.54808,519.38137)"><path
             d="m 0,0 c -0.228,0.458 -0.826,0.836 -1.789,1.129 -0.964,0.294 -1.857,0.347 -2.67,0.162 -4.398,-1.001 -8.995,-3.535 -13.687,-7.613 -4.693,-4.08 -6.777,-7.938 -6.401,-11.49 0.705,0.192 2.627,0.624 5.781,1.258 3.539,0.925 7.647,3.146 12.422,6.625 C -0.833,-5.96 1.344,-2.69 0,0 m -4.301,-30.144 c -6.116,-1.462 -12.95,0.759 -20.925,6.566 -0.461,-1.474 -1.149,-5.451 -2.026,-11.928 -3.141,-0.003 -5.068,0.641 -5.787,1.972 -1.287,2.385 -0.016,10.405 4.272,23.993 4.288,13.587 8.08,21.807 11,24.702 0.237,0.25 0.854,0.499 1.848,0.741 2.569,0.625 4.107,0.471 4.593,-0.434 0.244,-0.453 -1.296,-3.675 -4.482,-9.698 -3.188,-6.026 -4.778,-9.619 -4.904,-10.74 5.864,4.535 11.082,7.276 15.492,8.283 2.53,0.577 5.068,0.342 7.582,-0.705 2.319,-0.834 3.782,-1.897 4.397,-3.161 0.085,-0.174 0.168,-0.346 0.252,-0.518 0.938,-3.418 -1.028,-6.781 -5.759,-10.174 -3.778,-2.804 -7.614,-4.686 -11.559,-5.654 -3.946,-0.97 -6.876,-1.318 -8.827,-0.999 -0.5,-0.069 -0.827,-0.251 -0.984,-0.547 -0.157,-0.299 -0.068,-0.595 0.265,-0.89 5.837,-6.389 11.119,-8.998 16.179,-7.801 2.646,0.626 5.536,2.496 8.73,5.6 3.191,3.1 6.194,7.104 9.024,12.022 0.378,0.515 0.789,0.817 1.235,0.904 0.443,0.086 0.741,-0.032 0.887,-0.349 0.147,-0.32 0.07,-0.825 -0.229,-1.513 -2.599,-4.67 -5.276,-8.499 -8.048,-11.492 -4.239,-4.507 -8.277,-7.236 -12.226,-8.18"
             style="fill:#fdd5c7;fill-opacity:1;fill-rule:nonzero;stroke:none"
             id="path316"
             inkscape:connector-curvature="0" /></g><g
           id="g318"
           transform="matrix(2.0806073,0,0,2.1348107,493.45493,529.82252)"><path
             d="m 0,0 c -0.309,0.707 -1.53,0.9 -3.654,0.563 -2.124,-0.337 -4.633,-1.974 -7.473,-4.926 -3.815,-3.939 -6.345,-7.858 -7.657,-11.707 0.536,-0.025 1.086,0.017 1.652,0.124 3.065,0.576 6.635,2.5 10.793,5.739 4.156,3.24 6.336,6.34 6.436,9.373 C 0.136,-0.515 0.103,-0.236 0,0 m -12.065,-29.187 c -0.873,-0.159 -1.701,-0.217 -2.488,-0.175 -5.518,0.1 -8.973,1.652 -10.407,4.771 -1.858,4.043 -0.582,9.458 4.101,16.174 4.682,6.714 10.027,10.566 15.877,11.506 1.922,0.309 3.658,0.184 5.195,-0.37 1.536,-0.553 2.535,-1.365 2.994,-2.428 1.426,-3.31 -0.78,-6.962 -6.403,-11.07 -5.625,-4.109 -10.5,-6.595 -14.76,-7.406 -0.644,-0.122 -1.231,-0.173 -1.766,-0.149 -0.491,-1.799 -0.338,-3.569 0.444,-5.31 1.357,-3.018 3.972,-4.143 7.909,-3.433 3.936,0.71 8.218,3.545 12.983,8.481 3.745,3.65 6.752,7.33 8.974,11.075 0.452,0.815 0.949,1.256 1.49,1.327 0.539,0.071 0.883,-0.072 1.028,-0.429 0.145,-0.356 0.017,-0.906 -0.38,-1.647 -2.757,-4.81 -6.566,-9.279 -11.359,-13.47 -4.793,-4.193 -9.235,-6.681 -13.432,-7.447"
             style="fill:#fdd5c7;fill-opacity:1;fill-rule:nonzero;stroke:none"
             id="path320"
             inkscape:connector-curvature="0" /></g><g
           id="g322"
           transform="matrix(2.0806073,0,0,2.1348107,571.0258,483.28343)"><path
             d="m 0,0 c -6.156,-0.539 -10.102,1.609 -11.981,6.592 -0.95,2.519 -1.102,5.378 -0.425,8.578 0.676,3.198 1.709,5.935 3.113,8.204 -0.401,-0.104 -0.938,-0.189 -1.613,-0.26 -2.029,-0.211 -4.117,0.622 -6.292,2.5 -2.36,-3.879 -3.526,-5.824 -5.827,-9.725 -3.297,-5.245 -5.305,-7.942 -6.122,-8.057 -0.409,-0.057 -0.663,0.031 -0.76,0.268 -0.242,0.591 0.098,1.552 1.037,2.874 4.701,6.985 7.807,12.71 9.138,17.256 -0.19,5.428 1.198,8.327 4.212,8.661 1.978,0.219 3.218,-0.281 3.705,-1.482 0.488,-1.202 0.027,-2.844 -1.354,-4.932 -0.765,-1.284 -1.146,-1.926 -1.905,-3.213 0.507,-1.258 2.068,-1.738 4.7,-1.467 1.528,0.157 3.074,0.716 4.645,1.678 1.106,0.705 1.661,1.056 2.772,1.755 0.147,0.074 0.563,0.145 1.248,0.204 0.686,0.06 1.531,-0.18 2.53,-0.722 1.001,-0.543 1.462,-1.068 1.387,-1.574 -2.354,-3.449 -3.519,-5.18 -5.823,-8.651 C -7.149,13.04 -8.317,8.866 -7.264,6.008 -6.211,3.149 -3.896,1.901 -0.272,2.22 c 3.786,0.332 7.928,2.183 12.513,5.53 2.74,1.983 5.234,4.148 7.199,6.487 1.892,2.252 2.969,3.507 3.224,3.519 0.595,0.027 0.971,-0.191 1.124,-0.652 0.151,-0.46 -0.055,-1.014 -0.617,-1.662 C 21.979,14.044 21.385,13.344 20.203,11.94 18.493,10.111 16.522,8.325 14.298,6.571 8.909,2.569 4.185,0.367 0,0"
             style="fill:#fdd5c7;fill-opacity:1;fill-rule:nonzero;stroke:none"
             id="path324"
             inkscape:connector-curvature="0" /></g><g
           id="g326"
           transform="matrix(2.0806073,0,0,2.1348107,612.23056,464.10066)"><path
             d="m 0,0 c 5.058,-3.47 8.952,-5.199 11.81,-5.115 4.652,0.137 8.904,3.027 12.841,8.704 2.849,4.179 5.357,9.425 7.494,15.759 0.977,3.429 1.467,5.144 2.448,8.572 C 28.201,23.695 25.056,21.538 18.87,17.144 14.095,13.768 10.046,11.995 6.624,11.864 4.787,11.793 3.187,12.188 1.807,13.057 c -1.378,0.868 -2.259,1.88 -2.639,3.043 -0.861,2.632 0.778,7.139 5.09,13.46 4.312,6.318 8.015,9.495 10.977,9.563 2.961,0.067 4.679,-0.631 5.132,-2.058 0.177,-0.558 -2.691,-3.802 -8.399,-9.85 C 6.26,21.167 3.837,17.07 4.481,15.043 4.736,14.244 5.57,13.877 6.994,13.931 c 2.679,0.101 7.325,2.601 14.154,7.354 6.827,4.751 12.013,8.559 15.396,11.564 0.724,0.798 1.714,2.11 3.005,3.595 1.166,1.34 2.918,1.997 4.946,1.94 2.028,-0.058 3.24,-0.788 3.625,-2.174 0.069,-0.252 -1.299,-2.417 -4.056,-6.515 C 41.306,25.594 39.9,23.408 39.798,23.161 38.159,19.459 35.582,14.058 32.134,6.935 26.602,-2.721 19.966,-7.579 12.081,-7.808 9.478,-7.883 6.97,-7.12 4.521,-5.519 2.071,-3.916 0.561,-2.084 0,0"
             style="fill:#fdd5c7;fill-opacity:1;fill-rule:nonzero;stroke:none"
             id="path328"
             inkscape:connector-curvature="0" /></g></g></g><text
       transform="matrix(0.95067881,0.2730522,0.26611932,-0.97544567,0,0)"
       style="font-variant:normal;font-weight:normal;font-stretch:normal;font-size:20.23226166px;font-family:Quicksand;-inkscape-font-specification:Quicksand-Regular;writing-mode:lr-tb;fill:#ffdcae;fill-opacity:1;fill-rule:nonzero;stroke:none"
       id="text330"
       x="408.11514"
       y="-96.923866"><tspan
         x="408.11514 422.62167 446.03018 459.54547 473.06052 487.68848 495.27554 509.90353 523.41882 541.00043 554.31323 567.01923 579.58337 594.2113 601.89978 620.08856 637.20483"
         y="-96.923866"
         sodipodi:role="line"
         id="tspan332">SWEET TEMPTATIONS</tspan></text>
</g></svg>